<?xml version="1.0" standalone="no"?>
<!DOCTYPE svg PUBLIC "-//W3C//DTD SVG 20010904//EN"
 "http://www.w3.org/TR/2001/REC-SVG-20010904/DTD/svg10.dtd">
<svg version="1.0" xmlns="http://www.w3.org/2000/svg"
 width="200.000000pt" height="200.000000pt" viewBox="0 0 200.000000 200.000000"
 preserveAspectRatio="xMidYMid meet">

<g transform="translate(0.000000,200.000000) scale(0.100000,-0.100000)"
fill="#000000" stroke="none">
<path d="M797 1093 c-3 -4 -15 -44 -27 -88 -12 -44 -27 -86 -32 -92 -8 -10 -5
-13 11 -13 13 0 19 4 16 10 -4 6 -4 24 0 40 6 26 11 30 40 30 29 0 34 -4 40
-30 4 -16 4 -34 0 -40 -3 -5 2 -10 12 -10 17 0 17 7 -12 94 -31 96 -39 114
-48 99z m27 -75 c6 -25 4 -28 -19 -28 -28 0 -29 4 -14 50 13 35 21 29 33 -22z"/>
<path d="M908 1093 c8 -3 12 -32 12 -93 0 -61 -4 -90 -12 -93 -7 -3 13 -6 45
-6 53 -1 57 1 57 22 -1 20 -2 20 -11 5 -5 -10 -21 -18 -34 -18 -25 0 -25 1
-25 89 0 62 4 91 13 94 6 3 -4 5 -23 5 -19 0 -29 -2 -22 -5z"/>
<path d="M1043 1089 c14 -8 17 -24 17 -89 0 -65 -3 -81 -17 -89 -14 -8 -4 -10
40 -11 53 0 57 2 56 23 -1 16 -2 18 -6 5 -3 -12 -14 -18 -34 -18 l-29 0 0 89
c0 62 4 91 13 94 6 3 -4 6 -23 6 -28 0 -32 -2 -17 -10z"/>
<path d="M1140 1078 c0 -21 1 -21 14 -3 8 11 19 16 30 12 24 -10 24 -162 -1
-176 -14 -8 -10 -10 22 -10 32 0 36 2 23 10 -26 14 -26 166 -2 176 11 4 22 -1
30 -12 13 -18 14 -18 14 3 0 20 -5 22 -65 22 -60 0 -65 -2 -65 -22z"/>
<path d="M1298 1093 c8 -3 12 -32 12 -93 0 -61 -4 -90 -12 -93 -7 -3 15 -6 50
-6 57 -1 62 1 62 21 0 20 -1 21 -13 4 -9 -12 -23 -17 -42 -14 -27 3 -30 7 -33
41 -4 44 22 63 44 32 13 -17 14 -16 13 16 0 19 -3 28 -6 22 -2 -7 -16 -13 -29
-13 -23 0 -25 3 -22 38 3 34 6 37 35 40 23 2 32 -1 36 -15 4 -14 5 -13 6 5 1
20 -3 22 -56 21 -32 0 -52 -3 -45 -6z"/>
<path d="M1461 1074 c-29 -36 -29 -111 0 -148 22 -28 62 -34 89 -15 11 8 8 9
-14 4 -57 -12 -97 44 -81 115 12 55 85 78 99 32 2 -9 4 -6 3 8 -2 21 -8 25
-38 28 -30 3 -41 -2 -58 -24z"/>
<path d="M1598 1088 c7 -7 12 -42 12 -88 0 -46 -5 -81 -12 -88 -9 -9 -6 -12
16 -12 24 0 26 2 17 14 -7 8 -11 30 -9 48 3 32 5 33 51 36 l47 3 0 -45 c0 -26
-5 -46 -12 -49 -7 -3 3 -6 22 -6 28 0 32 2 18 10 -15 8 -18 24 -18 89 0 65 3
81 18 89 14 8 10 10 -18 10 -19 0 -29 -3 -22 -6 7 -2 12 -22 12 -44 l0 -39
-50 0 c-50 0 -50 0 -50 33 0 18 5 38 12 45 9 9 6 12 -17 12 -23 0 -26 -3 -17
-12z"/>
</g>
</svg>
